<svg width="238" height="45" viewBox="0 0 238 45" fill="none" xmlns="http://www.w3.org/2000/svg">
<path d="M20.2948 36.4901H0V6.79444H7.79212V32.7162H20.2948V36.4901Z" fill="white"/>
<path d="M75.6845 22.9208C75.6845 24.5568 75.5013 26.2616 75.1349 28.0351C74.7685 29.8085 74.2517 31.5408 73.5843 33.2318C72.9301 34.909 72.1384 36.4969 71.2094 37.9955C70.2804 39.494 69.2466 40.7932 68.1082 41.893L65.6156 40.4701C65.995 39.7552 66.3418 38.951 66.6558 38.0573C66.9699 37.1637 67.2577 36.222 67.5194 35.2321C67.7811 34.2423 68.0101 33.2249 68.2064 32.1801C68.4027 31.1352 68.5662 30.0973 68.6971 29.0662C68.841 28.0213 68.9457 27.0108 69.0111 26.0347C69.0765 25.0586 69.1093 24.1444 69.1093 23.292C69.1093 22.8108 69.0962 22.2884 69.07 21.7247C69.0438 21.1611 68.985 20.5974 68.8934 20.0337C68.8148 19.4701 68.6905 18.9339 68.5204 18.4252C68.3503 17.9028 68.1148 17.4422 67.8138 17.0436C67.526 16.6311 67.1596 16.308 66.7147 16.0743C66.2829 15.8269 65.7595 15.7031 65.1445 15.7031C64.5426 15.7031 64.0257 15.875 63.5939 16.2187C63.1752 16.5486 62.8154 16.9817 62.5144 17.5179C62.2135 18.054 61.9714 18.6589 61.7882 19.3326C61.6181 20.0062 61.4872 20.6868 61.3956 21.3742C61.304 22.0478 61.2386 22.694 61.1994 23.3126C61.1732 23.9313 61.1601 24.4537 61.1601 24.8799V36.82H54.5456V25.7254C54.5456 25.2442 54.5522 24.6668 54.5653 23.9932C54.5784 23.3058 54.5587 22.5909 54.5064 21.8485C54.4671 21.1061 54.3821 20.3706 54.2512 19.6419C54.1335 18.8995 53.9372 18.2396 53.6624 17.6622C53.4007 17.0848 53.0409 16.6174 52.5829 16.2599C52.1249 15.8887 51.5492 15.7031 50.8557 15.7031C50.2668 15.7031 49.7696 15.875 49.364 16.2187C48.9714 16.5624 48.6378 17.0092 48.363 17.5591C48.1013 18.0953 47.8919 18.7071 47.7349 19.3945C47.591 20.0681 47.4797 20.7486 47.4012 21.436C47.3358 22.1097 47.2965 22.7558 47.2835 23.3745C47.2704 23.9794 47.2638 24.4812 47.2638 24.8799V36.82H40.6101V13.0017H43.1617L45.5955 18.549C46.1451 16.6242 47.0087 15.1257 48.1863 14.0534C49.3771 12.9673 50.9538 12.4242 52.9166 12.4242C54.683 12.4242 56.1486 12.8092 57.3131 13.5791C58.4777 14.349 59.3936 15.6 60.061 17.3323C60.4404 16.5761 60.8592 15.8956 61.3171 15.2907C61.7882 14.6858 62.3051 14.1702 62.8677 13.744C63.4434 13.3179 64.0781 12.9948 64.7716 12.7748C65.4651 12.5411 66.2306 12.4242 67.068 12.4242C68.612 12.4242 69.9271 12.6923 71.0131 13.2285C72.1123 13.7509 73.0086 14.4796 73.7021 15.4144C74.3956 16.3493 74.8994 17.4629 75.2134 18.7552C75.5274 20.0337 75.6845 21.4223 75.6845 22.9208Z" fill="white"/>
<path d="M88.4337 37.7892H81.7996V3H84.3512L88.4337 10.2383V37.7892Z" fill="white"/>
<path d="M118.006 9.70214L109.763 30.6541C108.82 33.0462 107.767 35.4108 106.603 37.748C105.451 40.0989 104.201 42.3536 102.854 44.512L100.263 42.8623C100.59 42.2436 100.976 41.5287 101.421 40.7176C101.866 39.9064 102.304 39.0678 102.736 38.2017C103.168 37.3356 103.567 36.4763 103.933 35.6239C104.3 34.7853 104.581 34.0154 104.777 33.3143L94.8653 9.70214H101.499L108.232 25.8079L113.413 9.70214H118.006Z" fill="white"/>
<path d="M151.945 22.0341C151.945 23.4776 151.762 24.8524 151.396 26.1585C151.029 27.4508 150.512 28.6468 149.845 29.7467C149.191 30.8465 148.406 31.8432 147.49 32.7369C146.574 33.6167 145.56 34.366 144.447 34.9847C143.348 35.6033 142.164 36.0845 140.895 36.4282C139.639 36.7581 138.343 36.9231 137.009 36.9231H124.545V7.2275H137.009C138.343 7.2275 139.639 7.39248 140.895 7.72243C142.151 8.05238 143.329 8.52669 144.428 9.14534C145.54 9.75026 146.554 10.4926 147.47 11.3725C148.399 12.2524 149.191 13.2422 149.845 14.3421C150.512 15.4282 151.029 16.6242 151.396 17.9303C151.762 19.2226 151.945 20.5905 151.945 22.0341ZM144.035 22.0341C144.035 20.4256 143.846 18.8995 143.466 17.456C143.1 15.9987 142.524 14.7201 141.739 13.6203C140.954 12.5205 139.953 11.6475 138.736 11.0013C137.532 10.3552 136.086 10.0321 134.398 10.0321H132.337V34.0361H134.398C136.06 34.0361 137.493 33.713 138.697 33.0668C139.914 32.4069 140.915 31.527 141.7 30.4272C142.498 29.3136 143.087 28.0351 143.466 26.5915C143.846 25.148 144.035 23.6288 144.035 22.0341Z" fill="white"/>
<path d="M211.546 18.4753L208.68 19.6714C208.223 18.1591 207.457 16.9974 206.384 16.1863C205.311 15.3751 204.022 14.9696 202.517 14.9696C201.706 14.9696 200.98 15.107 200.339 15.382C199.711 15.6432 199.155 16.0075 198.67 16.475C198.199 16.9424 197.794 17.4854 197.454 18.1041C197.126 18.7228 196.858 19.3827 196.649 20.0838C196.439 20.785 196.289 21.5136 196.197 22.2697C196.106 23.0121 196.06 23.7339 196.06 24.435C196.06 25.1912 196.099 25.9542 196.178 26.7241C196.256 27.494 196.387 28.2364 196.57 28.9513C196.767 29.6524 197.022 30.3123 197.336 30.931C197.65 31.5359 198.042 32.0652 198.513 32.5189C198.998 32.9725 199.567 33.33 200.221 33.5912C200.888 33.8524 201.654 33.983 202.517 33.983C203.211 33.983 203.872 33.873 204.5 33.6531C205.128 33.4331 205.704 33.1238 206.227 32.7251C206.75 32.3264 207.215 31.8521 207.621 31.3022C208.026 30.7522 208.347 30.1405 208.582 29.4668L211.468 30.5804C211.036 31.6665 210.46 32.6082 209.74 33.4056C209.034 34.1892 208.229 34.8423 207.326 35.3647C206.423 35.8734 205.455 36.2514 204.421 36.4989C203.388 36.7463 202.341 36.8701 201.281 36.8701C199.567 36.8701 197.977 36.5676 196.511 35.9627C195.046 35.3441 193.777 34.4848 192.704 33.385C191.644 32.2714 190.813 30.9585 190.211 29.4462C189.609 27.9202 189.308 26.2498 189.308 24.435C189.308 22.6066 189.603 20.9293 190.191 19.4033C190.793 17.8773 191.624 16.5643 192.684 15.4645C193.744 14.3647 195.007 13.5123 196.472 12.9074C197.938 12.3025 199.541 12 201.281 12C202.38 12 203.453 12.1306 204.5 12.3918C205.547 12.6393 206.515 13.0311 207.405 13.5673C208.308 14.0897 209.112 14.7565 209.819 15.5676C210.539 16.3787 211.114 17.348 211.546 18.4753Z" fill="white"/>
<path d="M237.296 36.386H230.662L225.108 28.0341L219.435 36.386H214.842L223.38 25.4151L214.842 12.5676H221.477L226.855 20.6514L232.704 12.5676H237.296L228.582 23.2498L237.296 36.386Z" fill="white"/>
<path d="M26.505 11.8116C26.3111 12.0159 26.0544 12.5259 26.0544 12.5259C26.0544 12.5259 25.8991 13.0793 25.9019 13.3678L25.885 30.1957C25.8853 30.3206 25.9788 30.5397 26.0376 30.6482L29.1407 36.4448C29.2008 36.5565 29.2882 36.6494 29.3937 36.714C29.4993 36.7786 29.6193 36.8125 29.7415 36.8124C29.8637 36.8122 29.9836 36.7779 30.089 36.713C30.1944 36.648 30.2815 36.5549 30.3413 36.4429L33.4769 30.6482C33.5354 30.5395 33.5799 30.309 33.5799 30.184L33.5169 13.3563L33.5178 13.3532C33.5183 13.0668 33.4649 12.7832 33.3606 12.5186C33.2563 12.254 33.1033 12.0137 32.9103 11.8114C32.7172 11.6092 32.4881 11.4491 32.2359 11.3403C31.9838 11.2315 31.7136 11.1762 31.4411 11.1775L31.4382 11.1785L27.9864 11.1735C27.7115 11.171 27.4389 11.2262 27.1845 11.3358C26.9301 11.4453 26.6991 11.6071 26.505 11.8116Z" fill="white"/>
<path d="M25.2786 10V8.88889H33.6785V10H25.2786ZM25.2786 8.05556L24.5136 3.59722C24.4936 3.59722 24.471 3.59963 24.4458 3.60445C24.4206 3.60926 24.3982 3.61148 24.3786 3.61111C24.1286 3.61111 23.9162 3.53 23.7414 3.36778C23.5666 3.20556 23.479 3.00889 23.4786 2.77778C23.4782 2.54667 23.5658 2.35 23.7414 2.18778C23.917 2.02556 24.1294 1.94445 24.3786 1.94445C24.6278 1.94445 24.8404 2.02556 25.0164 2.18778C25.1924 2.35 25.2798 2.54667 25.2786 2.77778C25.2786 2.84259 25.271 2.90278 25.2558 2.95833C25.2406 3.01389 25.2232 3.06482 25.2036 3.11111L27.0786 3.88889L28.9536 1.51389C28.8436 1.43982 28.7536 1.34259 28.6836 1.22222C28.6136 1.10185 28.5786 0.972223 28.5786 0.833335C28.5786 0.601853 28.6662 0.405001 28.8414 0.242779C29.0166 0.0805568 29.229 -0.000369105 29.4786 1.2655e-06C29.7282 0.000371636 29.9408 0.0814827 30.1164 0.243335C30.292 0.405186 30.3794 0.601853 30.3786 0.833335C30.3786 0.972223 30.3436 1.10185 30.2736 1.22222C30.2036 1.34259 30.1136 1.43982 30.0036 1.51389L31.8786 3.88889L33.7535 3.11111C33.7335 3.06482 33.716 3.01389 33.7008 2.95833C33.6856 2.90278 33.6781 2.84259 33.6785 2.77778C33.6785 2.5463 33.7662 2.34945 33.9413 2.18722C34.1165 2.025 34.3289 1.94408 34.5785 1.94445C34.8281 1.94482 35.0407 2.02593 35.2163 2.18778C35.3919 2.34963 35.4793 2.5463 35.4785 2.77778C35.4777 3.00926 35.3903 3.20611 35.2163 3.36833C35.0423 3.53056 34.8297 3.61148 34.5785 3.61111C34.5585 3.61111 34.5361 3.60889 34.5113 3.60445C34.4865 3.6 34.4639 3.59759 34.4435 3.59722L33.6785 8.05556H25.2786Z" fill="#FFF701"/>
<ellipse cx="170.5" cy="24" rx="14.5" ry="14" fill="white" fill-opacity="0.96"/>
<path d="M178.014 29.5711C179.635 29.5711 180.948 30.6432 180.948 31.9667V32.8786H180.94C180.885 33.9109 180.786 34.9079 179.368 35.9641C177.818 37.1195 174.894 38.17 170.411 38.17C165.928 38.17 163.005 36.2372 161.455 35.0817C160.037 34.0256 159.938 33.9096 159.883 32.8786H159.875V31.9654C159.875 30.6432 161.188 29.5711 162.809 29.5711H178.014ZM164.738 18.3173C164.093 18.3173 163.475 18.5264 163.018 18.8987C162.562 19.271 162.306 19.776 162.306 20.3025V25.5966C162.306 26.1231 162.562 26.6281 163.018 27.0004C163.475 27.3727 164.093 27.5819 164.738 27.5819H176.085C176.73 27.5819 177.348 27.3727 177.804 27.0004C178.26 26.6281 178.517 26.1231 178.517 25.5966V20.3025C178.517 19.776 178.26 19.271 177.804 18.8987C177.348 18.5264 176.73 18.3173 176.085 18.3173H171.222V17.6555C171.227 17.5676 171.209 17.4799 171.17 17.3979C171.131 17.3159 171.071 17.2414 170.995 17.1792C170.919 17.117 170.827 17.0684 170.727 17.0365C170.627 17.0045 170.519 16.99 170.411 16.9937C169.964 16.9937 169.601 17.2981 169.601 17.6555V18.3173H164.738ZM165.548 22.9496C165.548 22.5986 165.719 22.2619 166.023 22.0137C166.327 21.7655 166.739 21.6261 167.169 21.6261C167.599 21.6261 168.012 21.7655 168.316 22.0137C168.62 22.2619 168.79 22.5986 168.79 22.9496C168.79 23.3006 168.62 23.6372 168.316 23.8854C168.012 24.1336 167.599 24.2731 167.169 24.2731C166.739 24.2731 166.327 24.1336 166.023 23.8854C165.719 23.6372 165.548 23.3006 165.548 22.9496ZM172.032 22.9496C172.032 22.5986 172.203 22.2619 172.507 22.0137C172.811 21.7655 173.224 21.6261 173.654 21.6261C174.083 21.6261 174.496 21.7655 174.8 22.0137C175.104 22.2619 175.275 22.5986 175.275 22.9496C175.275 23.3006 175.104 23.6372 174.8 23.8854C174.496 24.1336 174.083 24.2731 173.654 24.2731C173.224 24.2731 172.811 24.1336 172.507 23.8854C172.203 23.6372 172.032 23.3006 172.032 22.9496Z" fill="#4C0745"/>
</svg>
