<svg width="69" height="43" viewBox="0 0 69 43" fill="none" xmlns="http://www.w3.org/2000/svg">
<path d="M12.1172 25.9258C12.3828 25.957 12.6055 25.9805 12.7852 25.9961C12.9727 26.0039 13.125 26.0156 13.2422 26.0312C13.3828 26.0469 13.4922 26.0547 13.5703 26.0547C13.6562 26.0625 13.7852 26.0586 13.957 26.043C14.1055 26.0273 14.3047 26.0078 14.5547 25.9844C14.8125 25.9609 15.1406 25.9258 15.5391 25.8789C15.3594 26.0352 15.2148 26.1875 15.1055 26.3359C15.0039 26.4766 14.9258 26.6016 14.8711 26.7109C14.8008 26.8438 14.7578 26.9688 14.7422 27.0859C14.7109 27.2734 14.6836 27.5312 14.6602 27.8594C14.6445 28.1797 14.6289 28.5312 14.6133 28.9141C14.5977 29.2969 14.5898 29.6914 14.5898 30.0977C14.5898 30.5039 14.5938 30.8906 14.6016 31.2578C14.6172 31.6172 14.6406 31.9375 14.6719 32.2188C14.7109 32.5 14.7578 32.7031 14.8125 32.8281C14.8906 32.9688 14.9727 33.1094 15.0586 33.25C15.1367 33.3672 15.2305 33.4883 15.3398 33.6133C15.4492 33.7383 15.5742 33.8398 15.7148 33.918C15.2539 33.8945 14.8867 33.8828 14.6133 33.8828H14.1914C14.0664 33.8828 13.9062 33.8906 13.7109 33.9062C13.5469 33.9219 13.3398 33.9375 13.0898 33.9531C12.8398 33.9688 12.5391 33.9922 12.1875 34.0234C12.3672 33.8281 12.5078 33.6406 12.6094 33.4609C12.7109 33.2812 12.793 33.125 12.8555 32.9922C12.9258 32.8359 12.9727 32.6875 12.9961 32.5469C13.0273 32.3438 13.0508 32.0938 13.0664 31.7969C13.0898 31.4922 13.1055 31.168 13.1133 30.8242C13.1211 30.4727 13.1211 30.1172 13.1133 29.7578C13.1133 29.3906 13.1055 29.0391 13.0898 28.7031C13.0742 28.3672 13.0508 28.0625 13.0195 27.7891C12.9961 27.5156 12.9648 27.2969 12.9258 27.1328C12.9023 27.0312 12.8555 26.918 12.7852 26.793C12.7227 26.6836 12.6367 26.5586 12.5273 26.418C12.4258 26.2695 12.2891 26.1055 12.1172 25.9258ZM15.7148 25.5977C15.9648 25.6055 16.1836 25.6094 16.3711 25.6094C16.5586 25.6016 16.7109 25.5977 16.8281 25.5977H17.168C17.2539 25.5898 17.3594 25.5859 17.4844 25.5859C17.5938 25.5859 17.7266 25.5859 17.8828 25.5859C18.0391 25.5859 18.2188 25.5898 18.4219 25.5977C18.4844 25.8164 18.5547 26.0312 18.6328 26.2422C18.7188 26.4453 18.793 26.6289 18.8555 26.793C18.9336 26.9883 19.0117 27.1719 19.0898 27.3438C19.168 27.5156 19.2617 27.7227 19.3711 27.9648C19.4648 28.168 19.5781 28.418 19.7109 28.7148C19.8438 29.0039 20 29.3359 20.1797 29.7109C20.2656 29.4688 20.3438 29.2461 20.4141 29.043C20.4922 28.8398 20.5586 28.6641 20.6133 28.5156C20.6758 28.3438 20.7266 28.1875 20.7656 28.0469C20.8047 27.9062 20.8477 27.7344 20.8945 27.5312C20.9336 27.3594 20.9766 27.1523 21.0234 26.9102C21.0781 26.668 21.1328 26.3867 21.1875 26.0664C21.4141 26.0664 21.6172 26.0664 21.7969 26.0664C21.9766 26.0664 22.1328 26.0625 22.2656 26.0547C22.4141 26.0547 22.5469 26.0508 22.6641 26.043C22.7891 26.043 22.957 26.0352 23.168 26.0195C23.3477 26.0039 23.5859 25.9922 23.8828 25.9844C24.1875 25.9688 24.5625 25.9492 25.0078 25.9258C24.8438 26.043 24.7109 26.1602 24.6094 26.2773C24.5156 26.3867 24.4414 26.4844 24.3867 26.5703C24.3242 26.6719 24.2852 26.7695 24.2695 26.8633C24.2539 26.9414 24.2383 27.1211 24.2227 27.4023C24.2148 27.6836 24.2031 28.0195 24.1875 28.4102C24.1797 28.793 24.1719 29.2031 24.1641 29.6406C24.1641 30.0781 24.168 30.4922 24.1758 30.8828C24.1836 31.2734 24.1953 31.6133 24.2109 31.9023C24.2344 32.1836 24.2656 32.3633 24.3047 32.4414C24.3594 32.5352 24.4336 32.6445 24.5273 32.7695C24.6133 32.8789 24.7227 33.0039 24.8555 33.1445C24.9961 33.2852 25.1797 33.4414 25.4062 33.6133C25.0469 33.6289 24.7461 33.6406 24.5039 33.6484C24.2695 33.6562 24.0742 33.6641 23.918 33.6719C23.7383 33.6797 23.5938 33.6836 23.4844 33.6836C23.3672 33.6836 23.207 33.6875 23.0039 33.6953C22.8242 33.7031 22.5859 33.7148 22.2891 33.7305C21.9922 33.7383 21.6094 33.7539 21.1406 33.7773C21.25 33.6523 21.3516 33.5273 21.4453 33.4023C21.5391 33.2773 21.6172 33.1641 21.6797 33.0625C21.7578 32.9453 21.8242 32.832 21.8789 32.7227C21.9336 32.5742 21.9766 32.3047 22.0078 31.9141C22.0391 31.5781 22.0625 31.0977 22.0781 30.4727C22.0938 29.8398 22.0938 28.9922 22.0781 27.9297C21.9297 28.1719 21.7969 28.4141 21.6797 28.6562C21.5703 28.8906 21.4727 29.1055 21.3867 29.3008C21.293 29.5273 21.207 29.7461 21.1289 29.957C21.0508 30.1758 20.9688 30.418 20.8828 30.6836C20.8047 30.9102 20.7109 31.1797 20.6016 31.4922C20.5 31.8047 20.3828 32.1484 20.25 32.5234L19.8047 32.5469C19.7422 32.2344 19.6797 31.9531 19.6172 31.7031C19.5547 31.4453 19.4922 31.2266 19.4297 31.0469C19.3594 30.8359 19.2891 30.6484 19.2188 30.4844C19.1406 30.3203 19.0547 30.1367 18.9609 29.9336C18.875 29.7617 18.7695 29.5586 18.6445 29.3242C18.5273 29.0898 18.3906 28.8281 18.2344 28.5391C18.1562 29.3359 18.1094 29.9844 18.0938 30.4844C18.0781 30.9766 18.0781 31.3594 18.0938 31.6328C18.1094 31.9609 18.1328 32.1992 18.1641 32.3477C18.2109 32.4805 18.2852 32.6289 18.3867 32.793C18.4727 32.9336 18.5898 33.1016 18.7383 33.2969C18.8945 33.4844 19.0938 33.6953 19.3359 33.9297C19.1641 33.9297 18.9844 33.9297 18.7969 33.9297C18.6094 33.9297 18.4375 33.9336 18.2812 33.9414C18.0938 33.9492 17.9102 33.9531 17.7305 33.9531C17.543 33.9609 17.3242 33.9727 17.0742 33.9883C16.8555 34.0039 16.5938 34.0195 16.2891 34.0352C15.9844 34.0508 15.6328 34.0781 15.2344 34.1172C15.4062 34.0078 15.5469 33.9023 15.6562 33.8008C15.7656 33.6914 15.8516 33.5938 15.9141 33.5078C15.9922 33.4062 16.0508 33.3047 16.0898 33.2031C16.1133 33.1406 16.1328 33.0039 16.1484 32.793C16.1719 32.582 16.1914 32.3242 16.207 32.0195C16.2305 31.7148 16.2461 31.375 16.2539 31C16.2695 30.625 16.2812 30.2461 16.2891 29.8633C16.3047 29.4727 16.3164 29.0938 16.3242 28.7266C16.332 28.3516 16.3359 28.0156 16.3359 27.7188C16.3438 27.4141 16.3477 27.1602 16.3477 26.957C16.3477 26.7539 16.3477 26.625 16.3477 26.5703C16.3242 26.4531 16.2891 26.3359 16.2422 26.2188C16.2031 26.1172 16.1406 26.0117 16.0547 25.9023C15.9688 25.793 15.8555 25.6914 15.7148 25.5977ZM25.4648 25.5039C25.6914 25.543 25.8906 25.5703 26.0625 25.5859C26.2422 25.6016 26.3906 25.6133 26.5078 25.6211C26.6484 25.6289 26.7695 25.6328 26.8711 25.6328C26.9727 25.6328 27.1172 25.625 27.3047 25.6094C27.4609 25.5938 27.6641 25.5742 27.9141 25.5508C28.1719 25.5273 28.4883 25.4883 28.8633 25.4336C28.7539 25.4648 28.6523 25.5547 28.5586 25.7031C28.4727 25.8438 28.3945 25.9961 28.3242 26.1602C28.2383 26.3555 28.1641 26.5703 28.1016 26.8047C28.0469 27.0156 27.9766 27.3047 27.8906 27.6719C27.8125 28.0391 27.7344 28.4375 27.6562 28.8672C27.5859 29.2969 27.5312 29.7344 27.4922 30.1797C27.4531 30.6172 27.4453 31.0195 27.4688 31.3867C27.5 31.7539 27.5742 32.0586 27.6914 32.3008C27.8086 32.5352 27.9883 32.6602 28.2305 32.6758C28.5977 32.707 28.9023 32.7109 29.1445 32.6875C29.3945 32.6562 29.5977 32.6133 29.7539 32.5586C29.9102 32.5039 30.0312 32.4414 30.1172 32.3711C30.2031 32.293 30.2695 32.2188 30.3164 32.1484C30.4414 31.9688 30.5703 31.7383 30.7031 31.457C30.8359 31.1758 30.9531 30.9062 31.0547 30.6484C31.1641 30.3906 31.2539 30.1719 31.3242 29.9922C31.3945 29.8125 31.4297 29.7266 31.4297 29.7344C31.4297 29.75 31.4258 29.8398 31.418 30.0039C31.418 30.1602 31.4141 30.3516 31.4062 30.5781C31.4062 30.7969 31.4023 31.0273 31.3945 31.2695C31.3945 31.5117 31.3906 31.7188 31.3828 31.8906C31.375 32.0312 31.3672 32.1875 31.3594 32.3594C31.3516 32.5078 31.3438 32.6836 31.3359 32.8867C31.3359 33.0898 31.3281 33.3125 31.3125 33.5547C30.9844 33.5312 30.6719 33.5156 30.375 33.5078C30.0781 33.5 29.8164 33.4961 29.5898 33.4961C29.3242 33.4961 29.0781 33.5 28.8516 33.5078C28.6094 33.5156 28.3281 33.5273 28.0078 33.543C27.7344 33.5586 27.3945 33.5781 26.9883 33.6016C26.582 33.6172 26.1133 33.6406 25.582 33.6719C25.6445 33.5625 25.6953 33.4609 25.7344 33.3672C25.7812 33.2734 25.8164 33.1953 25.8398 33.1328C25.8711 33.0547 25.8906 32.9883 25.8984 32.9336C25.9453 32.6836 25.9844 32.3672 26.0156 31.9844C26.0469 31.5938 26.0703 31.1797 26.0859 30.7422C26.1094 30.3047 26.1211 29.8594 26.1211 29.4062C26.1289 28.9453 26.1289 28.5195 26.1211 28.1289C26.1133 27.7383 26.0977 27.3984 26.0742 27.1094C26.0586 26.8203 26.0352 26.6211 26.0039 26.5117C25.9648 26.3867 25.918 26.2617 25.8633 26.1367C25.8164 26.0273 25.7578 25.918 25.6875 25.8086C25.625 25.6914 25.5508 25.5898 25.4648 25.5039ZM29.3906 25.6797C29.7266 25.7109 30.0234 25.7344 30.2812 25.75C30.5391 25.7656 30.7539 25.7812 30.9258 25.7969C31.1289 25.8125 31.3008 25.8242 31.4414 25.832C31.582 25.8398 31.7539 25.8438 31.957 25.8438C32.1289 25.8516 32.3438 25.8555 32.6016 25.8555C32.8594 25.8555 33.1641 25.8555 33.5156 25.8555C33.2891 25.9648 33.1133 26.0664 32.9883 26.1602C32.8711 26.2539 32.7812 26.3359 32.7188 26.4062C32.6406 26.4922 32.5938 26.5703 32.5781 26.6406C32.5703 26.7031 32.5859 26.8086 32.625 26.957C32.6641 27.1055 32.7188 27.2734 32.7891 27.4609C32.8594 27.6406 32.9453 27.832 33.0469 28.0352C33.1484 28.2383 33.2539 28.4219 33.3633 28.5859C33.4805 28.7422 33.5977 28.8711 33.7148 28.9727C33.832 29.0742 33.9453 29.1211 34.0547 29.1133C34.1641 29.1055 34.2969 29.0547 34.4531 28.9609C34.6094 28.8594 34.7695 28.7344 34.9336 28.5859C35.1055 28.4375 35.2734 28.2773 35.4375 28.1055C35.6016 27.9336 35.7461 27.7656 35.8711 27.6016C36.0039 27.4375 36.1094 27.2891 36.1875 27.1562C36.2734 27.0156 36.3164 26.9141 36.3164 26.8516C36.3086 26.7734 36.2773 26.6836 36.2227 26.582C36.1758 26.4961 36.0977 26.3945 35.9883 26.2773C35.8789 26.1523 35.7266 26.0117 35.5312 25.8555C36.1719 25.8789 36.6406 25.8906 36.9375 25.8906H37.3711H37.8633C38.043 25.8906 38.2812 25.8906 38.5781 25.8906C38.875 25.8828 39.2461 25.8711 39.6914 25.8555C39.3867 26.0586 39.1211 26.2422 38.8945 26.4062C38.6758 26.5625 38.4883 26.6953 38.332 26.8047C38.1523 26.9375 38.0039 27.0547 37.8867 27.1562C37.7539 27.2656 37.5703 27.4375 37.3359 27.6719C37.1328 27.875 36.8633 28.1484 36.5273 28.4922C36.1914 28.8281 35.7695 29.2656 35.2617 29.8047C35.1914 30.375 35.1445 30.8359 35.1211 31.1875C35.1055 31.5391 35.0977 31.8164 35.0977 32.0195C35.0977 32.2539 35.1133 32.4297 35.1445 32.5469C35.1836 32.6406 35.25 32.75 35.3438 32.875C35.4219 32.9844 35.5312 33.1133 35.6719 33.2617C35.8203 33.4102 36.0156 33.5742 36.2578 33.7539C36 33.6914 35.7578 33.6445 35.5312 33.6133C35.3125 33.582 35.1172 33.5586 34.9453 33.543C34.7422 33.5195 34.5586 33.5078 34.3945 33.5078C34.2227 33.5078 34.0195 33.5156 33.7852 33.5312C33.582 33.5469 33.3398 33.5664 33.0586 33.5898C32.7773 33.6133 32.4492 33.6484 32.0742 33.6953C32.2695 33.5625 32.4297 33.4297 32.5547 33.2969C32.6797 33.1641 32.7773 33.043 32.8477 32.9336C32.9336 32.8086 32.9961 32.6914 33.0352 32.582C33.0664 32.457 33.0898 32.2773 33.1055 32.043C33.1211 31.8398 33.1211 31.5703 33.1055 31.2344C33.0977 30.8984 33.0742 30.4727 33.0352 29.957C32.5664 29.207 32.1836 28.6172 31.8867 28.1875C31.5898 27.75 31.3594 27.418 31.1953 27.1914C31 26.9336 30.8594 26.7617 30.7734 26.6758C30.6953 26.6133 30.5898 26.5352 30.457 26.4414C30.3477 26.3555 30.207 26.2539 30.0352 26.1367C29.8555 26.0117 29.6406 25.8594 29.3906 25.6797ZM37.2305 25.6445C37.5039 25.6836 37.7422 25.7148 37.9453 25.7383C38.1484 25.7617 38.3164 25.7812 38.4492 25.7969C38.6055 25.8125 38.7383 25.8242 38.8477 25.832C38.9727 25.8477 39.125 25.8398 39.3047 25.8086C39.4922 25.7773 39.6914 25.7461 39.9023 25.7148C40.1133 25.6758 40.332 25.6445 40.5586 25.6211C40.7852 25.5977 41.0039 25.5977 41.2148 25.6211C41.3555 25.6367 41.5352 25.668 41.7539 25.7148C41.9727 25.7617 42.2031 25.8359 42.4453 25.9375C42.6953 26.0391 42.9453 26.1719 43.1953 26.3359C43.4453 26.5 43.6719 26.707 43.875 26.957C44.0781 27.207 44.2461 27.5039 44.3789 27.8477C44.5117 28.1914 44.5859 28.5938 44.6016 29.0547C44.625 29.7422 44.5625 30.3672 44.4141 30.9297C44.2656 31.4922 44.0352 31.9727 43.7227 32.3711C43.418 32.7695 43.0312 33.082 42.5625 33.3086C42.0938 33.5352 41.5469 33.6602 40.9219 33.6836C40.4453 33.7227 39.9766 33.7578 39.5156 33.7891C39.3203 33.8047 39.1133 33.8164 38.8945 33.8242C38.6836 33.832 38.4727 33.8398 38.2617 33.8477C38.0508 33.8477 37.8477 33.8438 37.6523 33.8359C37.457 33.8281 37.2773 33.8164 37.1133 33.8008C37.293 33.7148 37.4375 33.6289 37.5469 33.543C37.6641 33.457 37.7539 33.3828 37.8164 33.3203C37.8867 33.2422 37.9375 33.1719 37.9688 33.1094C37.9844 33.0234 38.0078 32.8555 38.0391 32.6055C38.0625 32.3945 38.0938 32.0938 38.1328 31.7031C38.1719 31.3125 38.2188 30.7812 38.2734 30.1094L38.3438 29.2773C38.3828 28.7617 38.3984 28.3398 38.3906 28.0117C38.3906 27.6836 38.3828 27.4258 38.3672 27.2383C38.3438 27.0195 38.3125 26.8594 38.2734 26.7578C38.2422 26.6719 38.1836 26.5703 38.0977 26.4531C38.0195 26.3594 37.9102 26.2461 37.7695 26.1133C37.6367 25.9727 37.457 25.8164 37.2305 25.6445ZM39.7031 29.957C39.7188 30.6523 39.7539 31.1875 39.8086 31.5625C39.8711 31.9297 39.9375 32.2031 40.0078 32.3828C40.0938 32.5859 40.1875 32.707 40.2891 32.7461C40.4375 32.7461 40.6055 32.6836 40.793 32.5586C40.9805 32.4258 41.1641 32.2266 41.3438 31.9609C41.5312 31.6953 41.6992 31.3633 41.8477 30.9648C42.0039 30.5664 42.1172 30.1016 42.1875 29.5703C42.2578 29.0391 42.2383 28.5703 42.1289 28.1641C42.0195 27.7578 41.875 27.418 41.6953 27.1445C41.5156 26.8633 41.332 26.6523 41.1445 26.5117C40.957 26.3633 40.8164 26.2891 40.7227 26.2891C40.6133 26.2891 40.5156 26.3203 40.4297 26.3828C40.3438 26.4375 40.2227 26.5664 40.0664 26.7695C39.9883 26.8789 39.918 27.0352 39.8555 27.2383C39.8008 27.418 39.7539 27.6562 39.7148 27.9531C39.6758 28.25 39.6641 28.6328 39.6797 29.1016L39.7031 29.957ZM49.3594 25.1641C49.7812 25.1797 50.207 25.2578 50.6367 25.3984C51.0742 25.5312 51.4766 25.75 51.8438 26.0547C52.2109 26.3516 52.5234 26.7383 52.7812 27.2148C53.0391 27.6836 53.1992 28.2578 53.2617 28.9375C53.3164 29.4922 53.2461 30.043 53.0508 30.5898C52.8633 31.1289 52.6016 31.625 52.2656 32.0781C51.9297 32.5312 51.543 32.918 51.1055 33.2383C50.668 33.5508 50.2305 33.7578 49.793 33.8594C49.5273 33.9219 49.2344 33.9297 48.9141 33.8828C48.6016 33.8281 48.2812 33.7305 47.9531 33.5898C47.6328 33.4414 47.3164 33.2539 47.0039 33.0273C46.6992 32.8008 46.4219 32.543 46.1719 32.2539C45.9219 31.957 45.7109 31.6367 45.5391 31.293C45.375 30.9492 45.2734 30.5898 45.2344 30.2148C45.1953 29.9023 45.1914 29.5586 45.2227 29.1836C45.2617 28.8008 45.3359 28.4219 45.4453 28.0469C45.5625 27.6641 45.7227 27.2969 45.9258 26.9453C46.1367 26.5859 46.4023 26.2734 46.7227 26.0078C47.043 25.7344 47.418 25.5234 47.8477 25.375C48.2852 25.2188 48.7891 25.1484 49.3594 25.1641ZM47.2617 29.9102C47.1523 30.7461 47.2305 31.418 47.4961 31.9258C47.7695 32.4336 48.1797 32.7422 48.7266 32.8516C48.9922 32.9062 49.2461 32.8516 49.4883 32.6875C49.7383 32.5156 49.9648 32.2695 50.168 31.9492C50.3711 31.6289 50.5469 31.2539 50.6953 30.8242C50.8438 30.3945 50.9531 29.9453 51.0234 29.4766C51.0938 29.0078 51.0977 28.5859 51.0352 28.2109C50.9805 27.8281 50.8828 27.5039 50.7422 27.2383C50.6016 26.9648 50.4297 26.7539 50.2266 26.6055C50.0312 26.457 49.8281 26.375 49.6172 26.3594C49.25 26.3359 48.9297 26.4336 48.6562 26.6523C48.3828 26.8633 48.1523 27.1406 47.9648 27.4844C47.7773 27.8281 47.625 28.2148 47.5078 28.6445C47.3984 29.0742 47.3164 29.4961 47.2617 29.9102ZM57.0703 25.3398C57.3438 25.3398 57.5898 25.3867 57.8086 25.4805C58.0352 25.5664 58.2422 25.6641 58.4297 25.7734C58.625 25.8828 58.8086 25.9844 58.9805 26.0781C59.1523 26.1641 59.3281 26.207 59.5078 26.207C59.6484 26.1992 59.8086 26.1797 59.9883 26.1484C60.1445 26.1172 60.3242 26.0703 60.5273 26.0078C60.7383 25.9375 60.9727 25.8359 61.2305 25.7031C60.9727 25.9531 60.7617 26.1641 60.5977 26.3359C60.4414 26.5 60.3203 26.6367 60.2344 26.7461C60.1328 26.8711 60.0586 26.9688 60.0117 27.0391C59.9648 27.125 59.8945 27.2539 59.8008 27.4258C59.7148 27.582 59.5977 27.793 59.4492 28.0586C59.3008 28.3164 59.1133 28.6562 58.8867 29.0781C58.8867 28.5391 58.832 28.1211 58.7227 27.8242C58.6211 27.5273 58.5078 27.3008 58.3828 27.1445C58.2344 26.9648 58.0664 26.8516 57.8789 26.8047C57.707 26.7812 57.5352 26.8125 57.3633 26.8984C57.1914 26.9766 57.0195 27.0938 56.8477 27.25C56.6836 27.4062 56.5234 27.5938 56.3672 27.8125C56.2188 28.0234 56.082 28.2461 55.957 28.4805C55.8398 28.7148 55.7422 28.9531 55.6641 29.1953C55.5859 29.4297 55.5352 29.6484 55.5117 29.8516C55.4883 30.0312 55.4844 30.2422 55.5 30.4844C55.5156 30.7188 55.5508 30.9609 55.6055 31.2109C55.6602 31.4531 55.7305 31.6914 55.8164 31.9258C55.9023 32.1602 56.0078 32.3711 56.1328 32.5586C56.2656 32.7383 56.4141 32.8867 56.5781 33.0039C56.7422 33.1133 56.9297 33.1641 57.1406 33.1562C57.375 33.1406 57.6055 33.0703 57.832 32.9453C58.0273 32.8438 58.2266 32.6875 58.4297 32.4766C58.6328 32.2578 58.8086 31.9492 58.957 31.5508L60.6914 31.8672C60.1914 32.4766 59.7031 32.9336 59.2266 33.2383C58.7578 33.543 58.3359 33.7578 57.9609 33.8828C57.5234 34.0234 57.1094 34.0898 56.7188 34.082C56.2266 34.0273 55.7656 33.8789 55.3359 33.6367C54.9062 33.3945 54.5352 33.1016 54.2227 32.7578C53.918 32.4062 53.6797 32.0234 53.5078 31.6094C53.3359 31.1953 53.2617 30.7891 53.2852 30.3906C53.3008 30.125 53.3555 29.8164 53.4492 29.4648C53.543 29.1055 53.668 28.7383 53.8242 28.3633C53.9883 27.9883 54.1836 27.6211 54.4102 27.2617C54.6367 26.9023 54.8867 26.582 55.1602 26.3008C55.4336 26.0117 55.7305 25.7812 56.0508 25.6094C56.3789 25.4297 56.7188 25.3398 57.0703 25.3398ZM59.6133 26.043C59.957 26.0586 60.25 26.0703 60.4922 26.0781C60.7344 26.0859 60.9336 26.0938 61.0898 26.1016C61.2773 26.1094 61.4297 26.1172 61.5469 26.125C61.6719 26.1328 61.8281 26.1367 62.0156 26.1367C62.3359 26.1367 62.7891 26.1133 63.375 26.0664C63.25 26.1289 63.1523 26.1992 63.082 26.2773C63.0117 26.3477 62.957 26.418 62.918 26.4883C62.8711 26.5742 62.8359 26.6562 62.8125 26.7344C62.7969 26.8281 62.832 26.9727 62.918 27.168C62.9805 27.332 63.0938 27.5547 63.2578 27.8359C63.4219 28.1172 63.6641 28.4805 63.9844 28.9258C64.3672 28.3633 64.6641 27.9219 64.875 27.6016C65.0859 27.2812 65.2422 27.0391 65.3438 26.875C65.4609 26.6797 65.5312 26.5508 65.5547 26.4883C65.5469 26.4492 65.5156 26.3945 65.4609 26.3242C65.4141 26.2617 65.3359 26.1875 65.2266 26.1016C65.125 26.0078 64.9727 25.8945 64.7695 25.7617C65.0898 25.8086 65.3555 25.8438 65.5664 25.8672C65.7852 25.8906 65.9609 25.9062 66.0938 25.9141C66.25 25.9219 66.3789 25.9219 66.4805 25.9141C66.582 25.9062 66.7305 25.8984 66.9258 25.8906C67.0898 25.8828 67.3086 25.875 67.582 25.8672C67.8633 25.8594 68.2227 25.8477 68.6602 25.832C68.4883 25.918 68.3398 26 68.2148 26.0781C68.0898 26.1562 67.9844 26.2266 67.8984 26.2891C67.7969 26.3672 67.707 26.4336 67.6289 26.4883C67.5352 26.582 67.3633 26.7734 67.1133 27.0625C66.9023 27.3125 66.6016 27.6797 66.2109 28.1641C65.8203 28.6406 65.2969 29.2891 64.6406 30.1094C65.1719 30.6719 65.6016 31.1172 65.9297 31.4453C66.2578 31.7734 66.5156 32.0234 66.7031 32.1953C66.9219 32.3984 67.082 32.5352 67.1836 32.6055C67.2773 32.6602 67.4062 32.7305 67.5703 32.8164C67.7109 32.8945 67.8945 32.9922 68.1211 33.1094C68.3477 33.2188 68.6367 33.3516 68.9883 33.5078H67.0312C66.8672 33.5078 66.668 33.5156 66.4336 33.5312C66.2305 33.5469 65.9805 33.5625 65.6836 33.5781C65.3867 33.5938 65.0391 33.6211 64.6406 33.6602C64.7812 33.5742 64.8828 33.4922 64.9453 33.4141C65.0156 33.3281 65.0625 33.2539 65.0859 33.1914C65.1172 33.1211 65.1211 33.0586 65.0977 33.0039C65.0586 32.9258 64.9922 32.8086 64.8984 32.6523C64.8125 32.5195 64.6914 32.332 64.5352 32.0898C64.3789 31.8477 64.1641 31.5273 63.8906 31.1289C63.5781 31.4648 63.3359 31.7461 63.1641 31.9727C63 32.1914 62.875 32.3672 62.7891 32.5C62.6953 32.6562 62.6328 32.7812 62.6016 32.875C62.6016 32.9609 62.6211 33.0469 62.6602 33.1328C62.6992 33.2109 62.7617 33.2969 62.8477 33.3906C62.9414 33.4844 63.0781 33.5742 63.2578 33.6602L59.7891 33.8125C60.0703 33.6172 60.3047 33.4414 60.4922 33.2852C60.6797 33.1211 60.832 32.9844 60.9492 32.875C61.082 32.7422 61.1875 32.625 61.2656 32.5234C61.3438 32.4062 61.4648 32.2344 61.6289 32.0078C61.7617 31.8125 61.9453 31.5508 62.1797 31.2227C62.4219 30.8945 62.7305 30.4727 63.1055 29.957C62.6914 29.293 62.3555 28.7656 62.0977 28.375C61.8477 27.9844 61.6445 27.6836 61.4883 27.4727C61.3086 27.2305 61.1758 27.0625 61.0898 26.9688C61.0117 26.8984 60.9023 26.8203 60.7617 26.7344C60.6445 26.6562 60.4922 26.5625 60.3047 26.4531C60.1172 26.3359 59.8867 26.1992 59.6133 26.043Z" fill="white"/>
<path d="M24.0991 36.2949H26.0991V42.7949H23.0713H0V41.9819H1.12061C2.38037 41.9819 3.28125 41.5718 3.82324 40.7515C4.13086 40.2827 4.28467 39.1987 4.28467 37.4995V18.2734C4.28467 16.4131 4.07959 15.2485 3.66943 14.7798C3.09814 14.1353 2.24854 13.813 1.12061 13.813H0V13H13.4912V13.813C11.9092 13.7983 10.7959 13.9448 10.1514 14.2524C9.52148 14.5601 9.08936 14.9482 8.85498 15.417C8.62061 15.8857 8.50342 17.0063 8.50342 18.7788V37.4995C8.50342 38.7153 8.62061 39.5503 8.85498 40.0044C9.03076 40.312 9.30176 40.5391 9.66797 40.6855C10.0342 40.832 11.1768 40.9053 13.0957 40.9053H15.271C17.5562 40.9053 19.1602 40.7368 20.083 40.3999C21.0059 40.063 21.8481 39.4697 22.6099 38.6201C23.3716 37.7559 23.3374 38.1406 24.0991 36.2949Z" fill="white"/>
<path d="M1.75 10.5V9.33333H9.91667V10.5H1.75ZM1.75 8.45833L1.00625 3.77708C0.986807 3.77708 0.964835 3.77961 0.940335 3.78467C0.915835 3.78972 0.894057 3.79206 0.875001 3.79167C0.631946 3.79167 0.425446 3.7065 0.255501 3.53617C0.0855569 3.36583 0.000390215 3.15933 1.32576e-06 2.91667C-0.000387563 2.674 0.0847792 2.4675 0.255501 2.29717C0.426224 2.12683 0.632724 2.04167 0.875001 2.04167C1.11728 2.04167 1.32397 2.12683 1.49509 2.29717C1.6662 2.4675 1.75117 2.674 1.75 2.91667C1.75 2.98472 1.74261 3.04792 1.72783 3.10625C1.71306 3.16458 1.69614 3.21806 1.67708 3.26667L3.5 4.08333L5.32292 1.58958C5.21597 1.51181 5.12847 1.40972 5.06042 1.28333C4.99236 1.15695 4.95834 1.02083 4.95834 0.875001C4.95834 0.631946 5.0435 0.425251 5.21383 0.254918C5.38417 0.0845847 5.59067 -0.00038756 5.83334 1.32878e-06C6.076 0.000390218 6.2827 0.0855568 6.45342 0.255501C6.62414 0.425446 6.70911 0.631946 6.70833 0.875001C6.70833 1.02083 6.67431 1.15695 6.60625 1.28333C6.5382 1.40972 6.4507 1.51181 6.34375 1.58958L8.16667 4.08333L9.98959 3.26667C9.97014 3.21806 9.95303 3.16458 9.93825 3.10625C9.92348 3.04792 9.91628 2.98472 9.91667 2.91667C9.91667 2.67361 10.0018 2.46692 10.1722 2.29658C10.3425 2.12625 10.549 2.04128 10.7917 2.04167C11.0343 2.04206 11.241 2.12722 11.4118 2.29717C11.5825 2.46711 11.6674 2.67361 11.6667 2.91667C11.6659 3.15972 11.5809 3.36642 11.4118 3.53675C11.2426 3.70708 11.0359 3.79206 10.7917 3.79167C10.7722 3.79167 10.7504 3.78933 10.7263 3.78467C10.7022 3.78 10.6803 3.77747 10.6604 3.77708L9.91667 8.45833H1.75Z" fill="white"/>
</svg>
